<?xml version="1.0" encoding="UTF-8" standalone="no"?>
<!-- Created with Inkscape (http://www.inkscape.org/) -->

<svg
   width="210mm"
   height="297mm"
   viewBox="0 0 210 297"
   version="1.1"
   id="svg3672"
   inkscape:version="1.1.2 (0a00cf5339, 2022-02-04)"
   sodipodi:docname="mosaico_flechas.svg"
   xmlns:inkscape="http://www.inkscape.org/namespaces/inkscape"
   xmlns:sodipodi="http://sodipodi.sourceforge.net/DTD/sodipodi-0.dtd"
   xmlns="http://www.w3.org/2000/svg"
   xmlns:svg="http://www.w3.org/2000/svg">
  <sodipodi:namedview
     id="namedview3674"
     pagecolor="#ffffff"
     bordercolor="#666666"
     borderopacity="1.0"
     inkscape:pageshadow="2"
     inkscape:pageopacity="0.0"
     inkscape:pagecheckerboard="0"
     inkscape:document-units="mm"
     showgrid="false"
     inkscape:zoom="0.66368547"
     inkscape:cx="76.843629"
     inkscape:cy="561.25984"
     inkscape:window-width="1866"
     inkscape:window-height="1016"
     inkscape:window-x="0"
     inkscape:window-y="0"
     inkscape:window-maximized="1"
     inkscape:current-layer="layer1" />
  <defs
     id="defs3669" />
  <g
     inkscape:label="Capa 1"
     inkscape:groupmode="layer"
     id="layer1">
    <path
       style="fill:#ff0000;stroke:#000000;stroke-width:0.264583px;stroke-linecap:butt;stroke-linejoin:miter;stroke-opacity:1"
       d="M 9.1099517,8.8312026 120.03334,26.476478 132.44157,5.8739722 171.34184,39.305158 109.4004,60.583513 120.22022,35.511681 9.0429896,17.500451 Z"
       id="path3728" />
    <path
       style="fill:#00ffff;stroke:#000000;stroke-width:0.264583px;stroke-linecap:butt;stroke-linejoin:miter;stroke-opacity:1"
       d="M 20.671025,55.760691 75.802584,36.218677 108.92699,82.467642 136.54338,60.927667 152.06923,123.60413 97.03578,96.350586 60.532126,107.67184 96.053149,82.839826 72.96682,51.01573 10.7513,65.40011 Z"
       id="path3730" />
    <path
       style="fill:#ffff00;stroke:#000000;stroke-width:0.264583px;stroke-linecap:butt;stroke-linejoin:miter;stroke-opacity:1"
       d="m 178.82757,57.126404 -4.82594,-40.24107 20.72242,-6.009453 11.85384,81.094142 -31.90508,-11.715242 -6.12469,31.481499 -23.53793,-43.959797 22.78266,-15.790584 2.57726,21.89503 z"
       id="path3732" />
    <path
       style="fill:#ff00ff;stroke:#000000;stroke-width:0.264583px;stroke-linecap:butt;stroke-linejoin:miter;stroke-opacity:1"
       d="m 180.80684,89.97362 -26.45311,72.96838 -26.79261,-26.76613 8.13511,78.34091 60.47918,-22.03362 -35.82936,-25.2042 22.22205,-13.02023 10.00226,9.65811 -10.57221,7.23034 22.44007,7.91398 0.95148,-28.48845 -7.8439,7.35025 -7.56827,-8.5945 z"
       id="path3734" />
    <path
       style="fill:none;stroke:#000000;stroke-width:0.264583px;stroke-linecap:butt;stroke-linejoin:miter;stroke-opacity:1"
       d="M 192.55635,102.69952 Z"
       id="path3736" />
    <path
       style="fill:#ff6600;stroke:#000000;stroke-width:0.264583px;stroke-linecap:butt;stroke-linejoin:miter;stroke-opacity:1"
       d="m 175.80338,218.06577 -54.35916,24.66695 22.55686,18.12491 10.61427,-25.92521 4.84306,49.66402 -28.21281,-11.83203 30.54714,24.44115 30.92089,-8.68172 -27.75966,-2.16924 -0.57774,-50.15302 34.52438,8.20207 -22.12239,-24.56105 z"
       id="path3738" />
    <path
       style="fill:#ffcc00;stroke:#000000;stroke-width:0.264583px;stroke-linecap:butt;stroke-linejoin:miter;stroke-opacity:1"
       d="m 190.87918,207.40479 12.91122,-1.35637 -5.00347,11.41625 7.51844,10.68901 -4.04576,7.4141 -9.12085,-5.70579 4.83061,-7.94045 -13.47961,-9.74531 z"
       id="path3740" />
    <path
       style="fill:#1a1a1a;stroke:#000000;stroke-width:0.264583px;stroke-linecap:butt;stroke-linejoin:miter;stroke-opacity:1"
       d="M 62.189047,63.858425 15.265787,76.191897 36.927229,98.167906 8.7003931,98.522958 31.954906,134.92851 65.272414,123.48267 39.150991,120.71075 46.079224,102.57494 34.356198,81.861871 53.35317,86.465121 52.954515,99.15209 75.64063,87.209489 58.378439,73.921418 56.584479,82.813355 40.67866,77.735141 Z"
       id="path3742" />
    <path
       style="fill:#de8787;stroke:#000000;stroke-width:0.264583px;stroke-linecap:butt;stroke-linejoin:miter;stroke-opacity:1"
       d="M 75.841515,150.57582 22.049198,147.43172 32.965567,182.10716 7.0341285,177.95551 41.105349,211.63118 63.342974,184.4446 39.65554,183.26108 33.026299,155.57773 Z"
       id="path3744" />
    <path
       style="fill:#916f6f;stroke:#000000;stroke-width:0.264583px;stroke-linecap:butt;stroke-linejoin:miter;stroke-opacity:1"
       d="m 10.210932,218.11872 62.972346,9.64097 -11.476982,-18.97673 40.033954,27.40149 -35.686093,23.40868 15.113177,-21.46522 -71.8222365,-9.00718 z"
       id="path3746" />
    <path
       style="fill:#ff8080;stroke:#000000;stroke-width:0.264583px;stroke-linecap:butt;stroke-linejoin:miter;stroke-opacity:1"
       d="m 83.504774,120.02244 36.576846,1.86249 -19.9251,28.01037 24.11256,22.36221 -23.75595,29.23593 -23.667185,-28.13028 14.582153,-21.29704 -17.578313,-24.58909 z"
       id="path3748" />
    <path
       style="fill:#000080;stroke:#000000;stroke-width:0.264583px;stroke-linecap:butt;stroke-linejoin:miter;stroke-opacity:1"
       d="m 107.70143,219.58721 14.9886,-11.00981 8.16625,22.89635 c 0,0 -14.52609,2.7906 -17.43505,2.38416 -2.90895,-0.40644 -26.305176,-11.29167 -26.305176,-11.29167 z"
       id="path3750" />
    <path
       style="fill:#0000ff;stroke:#000000;stroke-width:0.264583px;stroke-linecap:butt;stroke-linejoin:miter;stroke-opacity:1"
       d="m 11.318142,245.83788 49.405526,1.85937 -49.168823,34.57734 77.893979,-17.75897 20.320646,-5.40056 7.40787,13.86892 -13.91254,-3.9928 2.21131,-3.68136 -13.630666,10.95219 26.116746,10.53796 -32.330203,6.19942 9.623849,-11.07831 -46.806466,7.2459 20.032551,-13.63376 -27.233306,9.72661 -30.168734,10.15333 -8.2145287,-21.90594 31.7913937,-19.68684 z"
       id="path3752" />
  </g>
</svg>
